<svg xmlns="http://www.w3.org/2000/svg" width="164" height="164" viewBox="0 0 164 164" version="1.1">
	<path d="M 16 30 L 16 44 30 44 L 44 44 44 30 L 44 16 30 16 L 16 16 16 30 M 48 18 C 48 19.333, 48.667 20, 50 20 C 51.333 20, 52 20.667, 52 22 C 52 23.333, 52.667 24, 54 24 C 55.333 24, 56 24.667, 56 26 C 56 27.333, 56.667 28, 58 28 C 59.333 28, 60 28.667, 60 30 C 60 31.333, 59.333 32, 58 32 C 56.222 32, 56 32.667, 56 38 C 56 43.333, 56.222 44, 58 44 C 59.333 44, 60 44.667, 60 46 C 60 47.333, 59.333 48, 58 48 C 56.667 48, 56 48.667, 56 50 C 56 51.333, 55.333 52, 54 52 C 52.111 52, 52 51.333, 52 40 C 52 28.667, 51.889 28, 50 28 C 48.133 28, 48 28.667, 48 38 L 48 48 44 48 C 40.667 48, 40 48.333, 40 50 C 40 51.333, 40.667 52, 42 52 C 43.333 52, 44 52.667, 44 54 C 44 55.667, 43.333 56, 40 56 L 36 56 36 52 C 36 48.667, 35.667 48, 34 48 C 32.333 48, 32 48.667, 32 52 C 32 55.333, 31.667 56, 30 56 C 28.667 56, 28 55.333, 28 54 C 28 52.333, 27.333 52, 24 52 C 20.667 52, 20 51.667, 20 50 C 20 48.667, 19.333 48, 18 48 C 16.667 48, 16 48.667, 16 50 C 16 51.333, 16.667 52, 18 52 C 19.333 52, 20 52.667, 20 54 C 20 55.333, 19.333 56, 18 56 C 16.167 56, 16 56.667, 16 64 C 16 71.333, 16.167 72, 18 72 C 19.667 72, 20 72.667, 20 76 C 20 79.333, 20.333 80, 22 80 C 23.667 80, 24 79.333, 24 76 C 24 72.667, 23.667 72, 22 72 C 20.167 72, 20 71.333, 20 64 L 20 56 24 56 L 28 56 28 60 C 28 63.333, 27.667 64, 26 64 C 24.667 64, 24 64.667, 24 66 C 24 67.778, 24.667 68, 30 68 L 36 68 36 72 C 36 75.333, 35.667 76, 34 76 C 32.667 76, 32 76.667, 32 78 C 32 79.333, 32.667 80, 34 80 C 35.778 80, 36 80.667, 36 86 L 36 92 40 92 C 43.333 92, 44 92.333, 44 94 C 44 95.667, 43.333 96, 40 96 L 36 96 36 100 C 36 103.333, 35.667 104, 34 104 C 32.667 104, 32 103.333, 32 102 C 32 100.667, 31.333 100, 30 100 C 28.667 100, 28 99.333, 28 98 C 28 96.667, 27.333 96, 26 96 C 24.333 96, 24 95.333, 24 92 L 24 88 28 88 C 31.333 88, 32 87.667, 32 86 C 32 84.222, 31.333 84, 26 84 L 20 84 20 88 C 20 91.333, 19.667 92, 18 92 C 16.222 92, 16 92.667, 16 98 C 16 103.333, 16.222 104, 18 104 C 19.333 104, 20 103.333, 20 102 C 20 100.333, 20.667 100, 24 100 C 27.333 100, 28 100.333, 28 102 C 28 103.333, 27.333 104, 26 104 C 24.667 104, 24 104.667, 24 106 C 24 107.333, 24.667 108, 26 108 C 27.333 108, 28 108.667, 28 110 C 28 111.333, 28.667 112, 30 112 C 31.333 112, 32 112.667, 32 114 C 32 115.778, 32.667 116, 38 116 C 43.333 116, 44 115.778, 44 114 C 44 112.222, 43.333 112, 38 112 C 32.667 112, 32 111.778, 32 110 C 32 108.667, 32.667 108, 34 108 C 35.333 108, 36 107.333, 36 106 C 36 104.667, 36.667 104, 38 104 C 39.333 104, 40 104.667, 40 106 C 40 107.667, 40.667 108, 44 108 C 47.333 108, 48 108.333, 48 110 C 48 111.333, 48.667 112, 50 112 C 51.333 112, 52 112.667, 52 114 C 52 115.333, 51.333 116, 50 116 C 48.333 116, 48 116.667, 48 120 L 48 124 52 124 L 56 124 56 130 C 56 135.333, 56.222 136, 58 136 C 59.333 136, 60 136.667, 60 138 C 60 139.667, 59.333 140, 56 140 C 52.667 140, 52 140.333, 52 142 C 52 143.333, 51.333 144, 50 144 C 48.667 144, 48 144.667, 48 146 C 48 147.333, 48.667 148, 50 148 C 51.333 148, 52 147.333, 52 146 C 52 144.667, 52.667 144, 54 144 C 55.333 144, 56 144.667, 56 146 C 56 147.333, 56.667 148, 58 148 C 59.667 148, 60 147.333, 60 144 C 60 140.667, 60.333 140, 62 140 C 63.333 140, 64 140.667, 64 142 C 64 143.333, 64.667 144, 66 144 C 67.333 144, 68 144.667, 68 146 C 68 147.333, 68.667 148, 70 148 C 71.333 148, 72 147.333, 72 146 C 72 144.667, 72.667 144, 74 144 C 75.333 144, 76 144.667, 76 146 C 76 147.833, 76.667 148, 84 148 C 91.333 148, 92 147.833, 92 146 C 92 144.333, 92.667 144, 96 144 C 99.333 144, 100 144.333, 100 146 C 100 147.667, 100.667 148, 104 148 C 107.333 148, 108 147.667, 108 146 C 108 144.667, 107.333 144, 106 144 C 104.667 144, 104 143.333, 104 142 C 104 140.667, 104.667 140, 106 140 C 107.333 140, 108 139.333, 108 138 C 108 136.667, 108.667 136, 110 136 C 111.333 136, 112 135.333, 112 134 C 112 132.333, 112.667 132, 116 132 C 119.333 132, 120 132.333, 120 134 C 120 135.333, 119.333 136, 118 136 C 116.667 136, 116 136.667, 116 138 C 116 139.333, 115.333 140, 114 140 C 112.333 140, 112 140.667, 112 144 L 112 148 118 148 C 123.333 148, 124 147.778, 124 146 C 124 144.333, 123.333 144, 120 144 C 116.667 144, 116 143.667, 116 142 C 116 140.167, 116.667 140, 124 140 L 132 140 132 144 C 132 147.333, 132.333 148, 134 148 C 135.778 148, 136 147.333, 136 142 C 136 136.667, 136.222 136, 138 136 C 139.333 136, 140 135.333, 140 134 C 140 132.333, 140.667 132, 144 132 C 147.333 132, 148 131.667, 148 130 C 148 128.333, 147.333 128, 144 128 C 140.667 128, 140 128.333, 140 130 C 140 131.333, 139.333 132, 138 132 C 136.667 132, 136 131.333, 136 130 C 136 128.667, 135.333 128, 134 128 C 132.667 128, 132 127.333, 132 126 C 132 124.667, 132.667 124, 134 124 C 135.333 124, 136 123.333, 136 122 C 136 120.667, 136.667 120, 138 120 C 139.333 120, 140 119.333, 140 118 C 140 116.333, 140.667 116, 144 116 C 147.333 116, 148 115.667, 148 114 C 148 112.333, 147.333 112, 144 112 C 140.667 112, 140 112.333, 140 114 C 140 115.333, 139.333 116, 138 116 C 136.222 116, 136 115.333, 136 110 C 136 104.667, 136.222 104, 138 104 C 139.333 104, 140 104.667, 140 106 C 140 107.333, 140.667 108, 142 108 C 143.667 108, 144 107.333, 144 104 C 144 100.667, 144.333 100, 146 100 C 147.333 100, 148 99.333, 148 98 C 148 96.667, 147.333 96, 146 96 C 144.667 96, 144 95.333, 144 94 C 144 92.667, 143.333 92, 142 92 C 140.333 92, 140 92.667, 140 96 C 140 99.333, 139.667 100, 138 100 C 136.667 100, 136 99.333, 136 98 C 136 96.667, 135.333 96, 134 96 C 132.333 96, 132 96.667, 132 100 C 132 103.333, 131.667 104, 130 104 C 128.667 104, 128 103.333, 128 102 C 128 100.667, 127.333 100, 126 100 C 124.667 100, 124 99.333, 124 98 C 124 96.667, 124.667 96, 126 96 C 127.667 96, 128 95.333, 128 92 C 128 88.667, 127.667 88, 126 88 C 124.333 88, 124 88.667, 124 92 L 124 96 120 96 L 116 96 116 88 C 116 80.667, 116.167 80, 118 80 C 119.333 80, 120 80.667, 120 82 C 120 83.333, 120.667 84, 122 84 C 123.667 84, 124 83.333, 124 80 C 124 76.667, 124.333 76, 126 76 C 127.333 76, 128 75.333, 128 74 C 128 72.222, 127.333 72, 122 72 C 116.667 72, 116 71.778, 116 70 C 116 68.133, 116.667 68, 126 68 C 135.333 68, 136 68.133, 136 70 C 136 71.333, 136.667 72, 138 72 C 139.333 72, 140 72.667, 140 74 C 140 75.333, 140.667 76, 142 76 C 143.333 76, 144 75.333, 144 74 C 144 72.667, 143.333 72, 142 72 C 140.667 72, 140 71.333, 140 70 C 140 68.667, 139.333 68, 138 68 C 136.667 68, 136 67.333, 136 66 C 136 64.133, 135.333 64, 126 64 C 116.667 64, 116 63.867, 116 62 C 116 60.667, 115.333 60, 114 60 C 112.333 60, 112 59.333, 112 56 C 112 52.667, 111.667 52, 110 52 C 108.667 52, 108 51.333, 108 50 C 108 48.667, 108.667 48, 110 48 C 111.333 48, 112 47.333, 112 46 C 112 44.667, 112.667 44, 114 44 C 115.833 44, 116 43.333, 116 36 C 116 28.667, 115.833 28, 114 28 C 112.667 28, 112 27.333, 112 26 C 112 24.667, 112.667 24, 114 24 C 115.333 24, 116 23.333, 116 22 C 116 20.667, 115.333 20, 114 20 C 112.667 20, 112 19.333, 112 18 C 112 16.667, 111.333 16, 110 16 C 108.667 16, 108 16.667, 108 18 C 108 19.333, 108.667 20, 110 20 C 111.333 20, 112 20.667, 112 22 C 112 23.778, 111.333 24, 106 24 C 100.667 24, 100 23.778, 100 22 C 100 20.333, 99.333 20, 96 20 C 92.667 20, 92 19.667, 92 18 C 92 16.333, 91.333 16, 88 16 C 84.667 16, 84 16.333, 84 18 C 84 19.333, 83.333 20, 82 20 C 80.667 20, 80 19.333, 80 18 C 80 16.667, 79.333 16, 78 16 C 76.667 16, 76 16.667, 76 18 C 76 19.333, 76.667 20, 78 20 C 79.333 20, 80 20.667, 80 22 C 80 23.333, 79.333 24, 78 24 C 76.667 24, 76 24.667, 76 26 C 76 27.333, 75.333 28, 74 28 C 72.667 28, 72 27.333, 72 26 C 72 24.222, 71.333 24, 66 24 L 60 24 60 20 C 60 16.667, 59.667 16, 58 16 C 56.667 16, 56 16.667, 56 18 C 56 19.333, 55.333 20, 54 20 C 52.667 20, 52 19.333, 52 18 C 52 16.667, 51.333 16, 50 16 C 48.667 16, 48 16.667, 48 18 M 64 18 C 64 19.333, 64.667 20, 66 20 C 67.333 20, 68 19.333, 68 18 C 68 16.667, 67.333 16, 66 16 C 64.667 16, 64 16.667, 64 18 M 120 30 L 120 44 134 44 L 148 44 148 30 L 148 16 134 16 L 120 16 120 30 M 20 30 L 20 40 30 40 L 40 40 40 30 L 40 20 30 20 L 20 20 20 30 M 88 22 C 88 23.333, 87.333 24, 86 24 C 84.667 24, 84 24.667, 84 26 C 84 27.667, 83.333 28, 80 28 L 76 28 76 36 C 76 43.333, 75.833 44, 74 44 C 72.333 44, 72 43.333, 72 40 C 72 36.667, 71.667 36, 70 36 C 68.333 36, 68 36.667, 68 40 C 68 43.333, 67.667 44, 66 44 C 64.667 44, 64 43.333, 64 42 C 64 40.667, 63.333 40, 62 40 C 60.667 40, 60 40.667, 60 42 C 60 43.333, 60.667 44, 62 44 C 63.333 44, 64 44.667, 64 46 C 64 47.333, 63.333 48, 62 48 C 60.667 48, 60 48.667, 60 50 C 60 51.333, 59.333 52, 58 52 C 56.667 52, 56 52.667, 56 54 C 56 55.333, 56.667 56, 58 56 C 59.333 56, 60 56.667, 60 58 C 60 59.333, 59.333 60, 58 60 C 56.667 60, 56 60.667, 56 62 C 56 63.333, 55.333 64, 54 64 C 52.333 64, 52 63.333, 52 60 L 52 56 48 56 C 44.667 56, 44 56.333, 44 58 C 44 59.333, 43.333 60, 42 60 C 40.667 60, 40 60.667, 40 62 C 40 63.333, 39.333 64, 38 64 C 36.667 64, 36 63.333, 36 62 C 36 60.667, 35.333 60, 34 60 C 32.667 60, 32 60.667, 32 62 C 32 63.333, 32.667 64, 34 64 C 35.333 64, 36 64.667, 36 66 C 36 67.333, 36.667 68, 38 68 C 39.333 68, 40 68.667, 40 70 C 40 71.778, 40.667 72, 46 72 C 51.333 72, 52 71.778, 52 70 C 52 68.667, 52.667 68, 54 68 C 55.667 68, 56 68.667, 56 72 C 56 75.333, 55.667 76, 54 76 C 52.333 76, 52 76.667, 52 80 C 52 83.333, 52.333 84, 54 84 C 55.333 84, 56 84.667, 56 86 C 56 87.333, 56.667 88, 58 88 C 59.778 88, 60 88.667, 60 94 C 60 99.333, 59.778 100, 58 100 C 56.667 100, 56 99.333, 56 98 C 56 96.667, 55.333 96, 54 96 C 52.667 96, 52 96.667, 52 98 C 52 99.333, 51.333 100, 50 100 C 48.667 100, 48 99.333, 48 98 C 48 96.667, 47.333 96, 46 96 C 44.667 96, 44 96.667, 44 98 C 44 99.333, 43.333 100, 42 100 C 40.667 100, 40 100.667, 40 102 C 40 103.778, 40.667 104, 46 104 L 52 104 52 108 C 52 111.333, 52.333 112, 54 112 C 55.333 112, 56 112.667, 56 114 C 56 115.333, 55.333 116, 54 116 C 52.667 116, 52 116.667, 52 118 C 52 119.333, 52.667 120, 54 120 C 55.333 120, 56 120.667, 56 122 C 56 123.333, 56.667 124, 58 124 C 59.333 124, 60 124.667, 60 126 C 60 127.333, 60.667 128, 62 128 C 63.333 128, 64 128.667, 64 130 C 64 131.333, 63.333 132, 62 132 C 60.667 132, 60 132.667, 60 134 C 60 135.333, 60.667 136, 62 136 C 63.333 136, 64 136.667, 64 138 C 64 139.333, 64.667 140, 66 140 C 67.333 140, 68 140.667, 68 142 C 68 143.333, 68.667 144, 70 144 C 71.867 144, 72 143.333, 72 134 C 72 124.667, 72.133 124, 74 124 C 75.867 124, 76 124.667, 76 134 L 76 144 80 144 C 83.333 144, 84 143.667, 84 142 C 84 140.667, 84.667 140, 86 140 C 87.333 140, 88 139.333, 88 138 C 88 136.667, 88.667 136, 90 136 C 91.333 136, 92 135.333, 92 134 C 92 132.667, 91.333 132, 90 132 C 88.667 132, 88 131.333, 88 130 C 88 128.333, 87.333 128, 84 128 C 80.667 128, 80 127.667, 80 126 C 80 124.667, 79.333 124, 78 124 C 76.667 124, 76 123.333, 76 122 C 76 120.667, 75.333 120, 74 120 C 72.667 120, 72 119.333, 72 118 C 72 116.333, 72.667 116, 76 116 C 79.333 116, 80 116.333, 80 118 C 80 119.667, 80.667 120, 84 120 C 87.333 120, 88 120.333, 88 122 C 88 123.333, 88.667 124, 90 124 C 91.333 124, 92 124.667, 92 126 C 92 127.333, 92.667 128, 94 128 C 95.667 128, 96 127.333, 96 124 C 96 120.667, 96.333 120, 98 120 C 99.333 120, 100 120.667, 100 122 C 100 123.333, 100.667 124, 102 124 C 103.333 124, 104 123.333, 104 122 C 104 120.667, 104.667 120, 106 120 C 107.667 120, 108 120.667, 108 124 L 108 128 104 128 C 100.667 128, 100 128.333, 100 130 C 100 131.333, 99.333 132, 98 132 C 96.333 132, 96 132.667, 96 136 L 96 140 100 140 C 103.333 140, 104 139.667, 104 138 C 104 136.667, 104.667 136, 106 136 C 107.333 136, 108 135.333, 108 134 C 108 132.667, 108.667 132, 110 132 C 111.778 132, 112 131.333, 112 126 C 112 120.667, 111.778 120, 110 120 C 108.667 120, 108 119.333, 108 118 C 108 116.667, 108.667 116, 110 116 C 111.333 116, 112 115.333, 112 114 C 112 112.667, 112.667 112, 114 112 C 115.333 112, 116 111.333, 116 110 C 116 108.667, 115.333 108, 114 108 C 112.667 108, 112 108.667, 112 110 C 112 111.333, 111.333 112, 110 112 C 108.667 112, 108 112.667, 108 114 C 108 115.833, 107.333 116, 100 116 C 92.667 116, 92 116.167, 92 118 C 92 119.333, 91.333 120, 90 120 C 88.667 120, 88 119.333, 88 118 C 88 116.333, 87.333 116, 84 116 C 80.667 116, 80 115.667, 80 114 C 80 112.667, 79.333 112, 78 112 C 76.333 112, 76 111.333, 76 108 C 76 104.667, 76.333 104, 78 104 C 79.333 104, 80 104.667, 80 106 C 80 107.333, 80.667 108, 82 108 C 83.667 108, 84 107.333, 84 104 L 84 100 88 100 L 92 100 92 96 C 92 92.667, 92.333 92, 94 92 C 95.667 92, 96 92.667, 96 96 C 96 99.333, 96.333 100, 98 100 C 99.333 100, 100 100.667, 100 102 C 100 103.333, 100.667 104, 102 104 C 103.333 104, 104 104.667, 104 106 C 104 107.333, 104.667 108, 106 108 C 107.333 108, 108 107.333, 108 106 C 108 104.222, 108.667 104, 114 104 C 119.333 104, 120 104.222, 120 106 C 120 107.667, 120.667 108, 124 108 C 127.333 108, 128 108.333, 128 110 C 128 111.333, 128.667 112, 130 112 C 131.333 112, 132 111.333, 132 110 C 132 108.667, 131.333 108, 130 108 C 128.667 108, 128 107.333, 128 106 C 128 104.667, 127.333 104, 126 104 C 124.667 104, 124 103.333, 124 102 C 124 100.333, 123.333 100, 120 100 C 116.667 100, 116 99.667, 116 98 C 116 96.667, 115.333 96, 114 96 C 112.667 96, 112 95.333, 112 94 C 112 92.667, 111.333 92, 110 92 C 108.667 92, 108 92.667, 108 94 C 108 95.333, 107.333 96, 106 96 C 104.667 96, 104 96.667, 104 98 C 104 99.333, 103.333 100, 102 100 C 100.222 100, 100 99.333, 100 94 C 100 88.667, 100.222 88, 102 88 C 103.333 88, 104 87.333, 104 86 C 104 84.333, 103.333 84, 100 84 C 96.667 84, 96 83.667, 96 82 C 96 80.333, 95.333 80, 92 80 C 88.667 80, 88 80.333, 88 82 C 88 83.333, 88.667 84, 90 84 C 91.667 84, 92 84.667, 92 88 C 92 91.333, 91.667 92, 90 92 C 88.667 92, 88 91.333, 88 90 C 88 88.667, 87.333 88, 86 88 C 84.667 88, 84 87.333, 84 86 C 84 84.667, 83.333 84, 82 84 C 80.667 84, 80 84.667, 80 86 C 80 87.333, 80.667 88, 82 88 C 83.778 88, 84 88.667, 84 94 C 84 99.333, 83.778 100, 82 100 C 80.333 100, 80 99.333, 80 96 C 80 92.667, 79.667 92, 78 92 C 76.667 92, 76 92.667, 76 94 C 76 95.333, 75.333 96, 74 96 C 72.667 96, 72 96.667, 72 98 C 72 99.333, 71.333 100, 70 100 C 68.667 100, 68 100.667, 68 102 C 68 103.333, 68.667 104, 70 104 C 71.667 104, 72 104.667, 72 108 L 72 112 68 112 C 64.667 112, 64 112.333, 64 114 C 64 115.333, 64.667 116, 66 116 C 67.333 116, 68 116.667, 68 118 C 68 119.333, 68.667 120, 70 120 C 71.333 120, 72 120.667, 72 122 C 72 123.333, 71.333 124, 70 124 C 68.667 124, 68 124.667, 68 126 C 68 127.333, 67.333 128, 66 128 C 64.667 128, 64 127.333, 64 126 C 64 124.667, 63.333 124, 62 124 C 60.133 124, 60 123.333, 60 114 C 60 104.667, 60.133 104, 62 104 C 63.778 104, 64 103.333, 64 98 C 64 92.667, 64.222 92, 66 92 C 67.333 92, 68 91.333, 68 90 C 68 88.667, 68.667 88, 70 88 C 71.333 88, 72 87.333, 72 86 C 72 84.667, 71.333 84, 70 84 C 68.667 84, 68 84.667, 68 86 C 68 87.333, 67.333 88, 66 88 C 64.667 88, 64 87.333, 64 86 C 64 84.333, 63.333 84, 60 84 C 56.667 84, 56 83.667, 56 82 C 56 80.667, 56.667 80, 58 80 C 59.778 80, 60 79.333, 60 74 L 60 68 64 68 C 67.333 68, 68 67.667, 68 66 C 68 64.667, 68.667 64, 70 64 C 71.333 64, 72 63.333, 72 62 C 72 60.667, 72.667 60, 74 60 C 75.667 60, 76 59.333, 76 56 C 76 52.667, 76.333 52, 78 52 C 79.333 52, 80 52.667, 80 54 C 80 55.667, 80.667 56, 84 56 C 87.333 56, 88 56.333, 88 58 C 88 59.333, 88.667 60, 90 60 C 91.333 60, 92 60.667, 92 62 C 92 63.333, 92.667 64, 94 64 C 95.778 64, 96 63.333, 96 58 C 96 52.667, 95.778 52, 94 52 C 92.667 52, 92 51.333, 92 50 C 92 48.333, 92.667 48, 96 48 C 99.333 48, 100 47.667, 100 46 C 100 44.667, 100.667 44, 102 44 C 103.667 44, 104 43.333, 104 40 L 104 36 100 36 C 96.667 36, 96 36.333, 96 38 C 96 39.333, 95.333 40, 94 40 C 92.333 40, 92 40.667, 92 44 C 92 47.333, 91.667 48, 90 48 C 88.667 48, 88 48.667, 88 50 C 88 51.667, 87.333 52, 84 52 C 80.667 52, 80 51.667, 80 50 C 80 48.667, 79.333 48, 78 48 C 76.667 48, 76 47.333, 76 46 C 76 44.667, 76.667 44, 78 44 C 79.667 44, 80 43.333, 80 40 L 80 36 84 36 C 87.333 36, 88 35.667, 88 34 C 88 32.667, 87.333 32, 86 32 C 84.667 32, 84 31.333, 84 30 C 84 28.333, 84.667 28, 88 28 L 92 28 92 24 C 92 20.667, 91.667 20, 90 20 C 88.667 20, 88 20.667, 88 22 M 124 30 L 124 40 134 40 L 144 40 144 30 L 144 20 134 20 L 124 20 124 30 M 24 30 L 24 36 30 36 L 36 36 36 30 L 36 24 30 24 L 24 24 24 30 M 128 30 L 128 36 134 36 L 140 36 140 30 L 140 24 134 24 L 128 24 128 30 M 68 30 C 68 31.333, 68.667 32, 70 32 C 71.333 32, 72 31.333, 72 30 C 72 28.667, 71.333 28, 70 28 C 68.667 28, 68 28.667, 68 30 M 100 30 C 100 31.333, 100.667 32, 102 32 C 103.333 32, 104 31.333, 104 30 C 104 28.667, 103.333 28, 102 28 C 100.667 28, 100 28.667, 100 30 M 108 40 C 108 43.333, 108.333 44, 110 44 C 111.667 44, 112 43.333, 112 40 C 112 36.667, 111.667 36, 110 36 C 108.333 36, 108 36.667, 108 40 M 84 42 C 84 43.333, 84.667 44, 86 44 C 87.333 44, 88 43.333, 88 42 C 88 40.667, 87.333 40, 86 40 C 84.667 40, 84 40.667, 84 42 M 96 42 C 96 43.333, 96.667 44, 98 44 C 99.333 44, 100 43.333, 100 42 C 100 40.667, 99.333 40, 98 40 C 96.667 40, 96 40.667, 96 42 M 72 50 C 72 51.778, 71.333 52, 66 52 C 60.667 52, 60 52.222, 60 54 C 60 55.333, 60.667 56, 62 56 C 63.333 56, 64 56.667, 64 58 C 64 59.333, 63.333 60, 62 60 C 60.667 60, 60 60.667, 60 62 C 60 63.667, 60.667 64, 64 64 L 68 64 68 60 C 68 56.667, 68.333 56, 70 56 C 71.333 56, 72 55.333, 72 54 C 72 52.667, 72.667 52, 74 52 C 75.333 52, 76 51.333, 76 50 C 76 48.667, 75.333 48, 74 48 C 72.667 48, 72 48.667, 72 50 M 116 52 C 116 55.333, 116.333 56, 118 56 C 119.333 56, 120 55.333, 120 54 C 120 52.222, 120.667 52, 126 52 L 132 52 132 56 C 132 59.333, 132.333 60, 134 60 C 135.333 60, 136 59.333, 136 58 C 136 56.667, 136.667 56, 138 56 C 139.333 56, 140 55.333, 140 54 C 140 52.667, 139.333 52, 138 52 C 136.667 52, 136 51.333, 136 50 C 136 48.133, 135.333 48, 126 48 L 116 48 116 52 M 144 50 C 144 51.333, 144.667 52, 146 52 C 147.333 52, 148 51.333, 148 50 C 148 48.667, 147.333 48, 146 48 C 144.667 48, 144 48.667, 144 50 M 88 54 C 88 55.333, 88.667 56, 90 56 C 91.333 56, 92 55.333, 92 54 C 92 52.667, 91.333 52, 90 52 C 88.667 52, 88 52.667, 88 54 M 100 54 C 100 55.667, 100.667 56, 104 56 C 107.333 56, 108 55.667, 108 54 C 108 52.333, 107.333 52, 104 52 C 100.667 52, 100 52.333, 100 54 M 108 62 C 108 63.333, 107.333 64, 106 64 C 104.667 64, 104 64.667, 104 66 C 104 67.667, 103.333 68, 100 68 L 96 68 96 72 C 96 75.333, 96.333 76, 98 76 C 99.333 76, 100 75.333, 100 74 C 100 72.667, 100.667 72, 102 72 C 103.333 72, 104 71.333, 104 70 C 104 68.667, 104.667 68, 106 68 C 107.333 68, 108 67.333, 108 66 C 108 64.667, 108.667 64, 110 64 C 111.333 64, 112 64.667, 112 66 C 112 67.333, 112.667 68, 114 68 C 115.333 68, 116 67.333, 116 66 C 116 64.667, 115.333 64, 114 64 C 112.667 64, 112 63.333, 112 62 C 112 60.667, 111.333 60, 110 60 C 108.667 60, 108 60.667, 108 62 M 140 62 C 140 63.333, 140.667 64, 142 64 C 143.333 64, 144 64.667, 144 66 C 144 67.333, 144.667 68, 146 68 C 147.333 68, 148 67.333, 148 66 C 148 64.667, 147.333 64, 146 64 C 144.667 64, 144 63.333, 144 62 C 144 60.667, 143.333 60, 142 60 C 140.667 60, 140 60.667, 140 62 M 40 66 C 40 67.778, 40.667 68, 46 68 C 51.333 68, 52 67.778, 52 66 C 52 64.222, 51.333 64, 46 64 C 40.667 64, 40 64.222, 40 66 M 76 66 C 76 67.333, 75.333 68, 74 68 C 72.667 68, 72 68.667, 72 70 C 72 71.667, 71.333 72, 68 72 L 64 72 64 76 C 64 79.333, 64.333 80, 66 80 C 67.333 80, 68 79.333, 68 78 C 68 76.333, 68.667 76, 72 76 C 75.333 76, 76 76.333, 76 78 C 76 79.667, 76.667 80, 80 80 C 83.333 80, 84 79.667, 84 78 C 84 76.667, 84.667 76, 86 76 C 87.333 76, 88 75.333, 88 74 C 88 72.667, 88.667 72, 90 72 C 91.333 72, 92 71.333, 92 70 C 92 68.667, 91.333 68, 90 68 C 88.667 68, 88 67.333, 88 66 C 88 64.222, 87.333 64, 82 64 C 76.667 64, 76 64.222, 76 66 M 80 72 C 80 75.333, 80.333 76, 82 76 C 83.333 76, 84 75.333, 84 74 C 84 72.667, 84.667 72, 86 72 C 87.333 72, 88 71.333, 88 70 C 88 68.333, 87.333 68, 84 68 L 80 68 80 72 M 40 78 C 40 79.667, 40.667 80, 44 80 C 47.333 80, 48 79.667, 48 78 C 48 76.333, 47.333 76, 44 76 C 40.667 76, 40 76.333, 40 78 M 104 78 C 104 79.667, 104.667 80, 108 80 C 111.333 80, 112 79.667, 112 78 C 112 76.333, 111.333 76, 108 76 C 104.667 76, 104 76.333, 104 78 M 132 78 C 132 79.333, 131.333 80, 130 80 C 128.667 80, 128 80.667, 128 82 C 128 83.333, 128.667 84, 130 84 C 131.667 84, 132 84.667, 132 88 C 132 91.333, 132.333 92, 134 92 C 135.333 92, 136 91.333, 136 90 C 136 88.667, 136.667 88, 138 88 C 139.333 88, 140 87.333, 140 86 C 140 84.667, 140.667 84, 142 84 C 143.333 84, 144 83.333, 144 82 C 144 80.667, 143.333 80, 142 80 C 140.667 80, 140 80.667, 140 82 C 140 83.333, 139.333 84, 138 84 C 136.333 84, 136 83.333, 136 80 C 136 76.667, 135.667 76, 134 76 C 132.667 76, 132 76.667, 132 78 M 40 86 C 40 87.333, 40.667 88, 42 88 C 43.333 88, 44 88.667, 44 90 C 44 91.667, 44.667 92, 48 92 C 51.333 92, 52 91.667, 52 90 C 52 88.333, 51.333 88, 48 88 C 44.667 88, 44 87.667, 44 86 C 44 84.667, 43.333 84, 42 84 C 40.667 84, 40 84.667, 40 86 M 104 102 C 104 103.333, 104.667 104, 106 104 C 107.333 104, 108 103.333, 108 102 C 108 100.667, 107.333 100, 106 100 C 104.667 100, 104 100.667, 104 102 M 92 108 L 92 112 96 112 C 99.333 112, 100 111.667, 100 110 C 100 108.667, 99.333 108, 98 108 C 96.667 108, 96 107.333, 96 106 C 96 104.667, 95.333 104, 94 104 C 92.333 104, 92 104.667, 92 108 M 16 114 C 16 115.667, 16.667 116, 20 116 C 23.333 116, 24 115.667, 24 114 C 24 112.333, 23.333 112, 20 112 C 16.667 112, 16 112.333, 16 114 M 116 122 L 116 128 122 128 L 128 128 128 122 L 128 116 122 116 L 116 116 116 122 M 132 118 C 132 119.333, 132.667 120, 134 120 C 135.333 120, 136 119.333, 136 118 C 136 116.667, 135.333 116, 134 116 C 132.667 116, 132 116.667, 132 118 M 16 134 L 16 148 30 148 L 44 148 44 134 L 44 120 30 120 L 16 120 16 134 M 120 122 C 120 123.333, 120.667 124, 122 124 C 123.333 124, 124 123.333, 124 122 C 124 120.667, 123.333 120, 122 120 C 120.667 120, 120 120.667, 120 122 M 20 134 L 20 144 30 144 L 40 144 40 134 L 40 124 30 124 L 20 124 20 134 M 24 134 L 24 140 30 140 L 36 140 36 134 L 36 128 30 128 L 24 128 24 134 M 48 130 C 48 131.333, 48.667 132, 50 132 C 51.333 132, 52 131.333, 52 130 C 52 128.667, 51.333 128, 50 128 C 48.667 128, 48 128.667, 48 130 M 64 134 C 64 135.333, 64.667 136, 66 136 C 67.333 136, 68 135.333, 68 134 C 68 132.667, 67.333 132, 66 132 C 64.667 132, 64 132.667, 64 134 M 80 136 C 80 139.333, 80.333 140, 82 140 C 83.333 140, 84 139.333, 84 138 C 84 136.667, 84.667 136, 86 136 C 87.333 136, 88 135.333, 88 134 C 88 132.333, 87.333 132, 84 132 L 80 132 80 136 M 132 134 C 132 135.333, 132.667 136, 134 136 C 135.333 136, 136 135.333, 136 134 C 136 132.667, 135.333 132, 134 132 C 132.667 132, 132 132.667, 132 134 M 144 146 C 144 147.333, 144.667 148, 146 148 C 147.333 148, 148 147.333, 148 146 C 148 144.667, 147.333 144, 146 144 C 144.667 144, 144 144.667, 144 146" stroke="none" fill="black" fill-rule="evenodd"/>
</svg>