<svg xmlns="http://www.w3.org/2000/svg" width="164" height="164" viewBox="0 0 164 164" version="1.1">
	<path d="M 16 30 L 16 44 30 44 L 44 44 44 30 L 44 16 30 16 L 16 16 16 30 M 64 18 C 64 19.667, 63.333 20, 60 20 C 56.667 20, 56 20.333, 56 22 C 56 23.333, 55.333 24, 54 24 C 52.667 24, 52 23.333, 52 22 C 52 20.667, 51.333 20, 50 20 C 48.667 20, 48 20.667, 48 22 C 48 23.333, 48.667 24, 50 24 C 51.667 24, 52 24.667, 52 28 C 52 31.333, 51.667 32, 50 32 C 48.667 32, 48 32.667, 48 34 C 48 35.333, 48.667 36, 50 36 C 51.333 36, 52 36.667, 52 38 C 52 39.333, 51.333 40, 50 40 C 48.667 40, 48 40.667, 48 42 C 48 43.333, 48.667 44, 50 44 C 51.333 44, 52 43.333, 52 42 C 52 40.667, 52.667 40, 54 40 C 55.667 40, 56 40.667, 56 44 L 56 48 60 48 C 63.333 48, 64 47.667, 64 46 C 64 44.667, 64.667 44, 66 44 C 67.778 44, 68 44.667, 68 50 C 68 55.333, 68.222 56, 70 56 C 71.333 56, 72 56.667, 72 58 C 72 59.667, 71.333 60, 68 60 C 64.667 60, 64 59.667, 64 58 C 64 56.667, 63.333 56, 62 56 C 60.667 56, 60 56.667, 60 58 C 60 59.333, 59.333 60, 58 60 C 56.333 60, 56 60.667, 56 64 C 56 67.333, 56.333 68, 58 68 C 59.333 68, 60 67.333, 60 66 C 60 64.667, 60.667 64, 62 64 C 63.778 64, 64 64.667, 64 70 C 64 75.333, 64.222 76, 66 76 C 67.333 76, 68 75.333, 68 74 C 68 72.667, 68.667 72, 70 72 C 71.778 72, 72 72.667, 72 78 C 72 83.333, 71.778 84, 70 84 C 68.667 84, 68 83.333, 68 82 C 68 80.333, 67.333 80, 64 80 C 60.667 80, 60 79.667, 60 78 C 60 76.667, 59.333 76, 58 76 C 56.667 76, 56 76.667, 56 78 C 56 79.333, 56.667 80, 58 80 C 59.778 80, 60 80.667, 60 86 C 60 91.333, 59.778 92, 58 92 C 56.667 92, 56 92.667, 56 94 C 56 95.333, 55.333 96, 54 96 C 52.333 96, 52 95.333, 52 92 C 52 88.667, 51.667 88, 50 88 C 48.667 88, 48 87.333, 48 86 C 48 84.667, 48.667 84, 50 84 C 51.667 84, 52 83.333, 52 80 C 52 76.667, 51.667 76, 50 76 C 48.667 76, 48 75.333, 48 74 C 48 72.667, 48.667 72, 50 72 C 51.333 72, 52 71.333, 52 70 C 52 68.667, 51.333 68, 50 68 C 48.667 68, 48 68.667, 48 70 C 48 71.667, 47.333 72, 44 72 C 40.667 72, 40 72.333, 40 74 C 40 75.333, 39.333 76, 38 76 C 36.667 76, 36 76.667, 36 78 C 36 79.333, 35.333 80, 34 80 C 32.667 80, 32 80.667, 32 82 C 32 83.778, 32.667 84, 38 84 C 43.333 84, 44 84.222, 44 86 C 44 87.667, 43.333 88, 40 88 C 36.667 88, 36 88.333, 36 90 C 36 91.667, 36.667 92, 40 92 C 43.333 92, 44 91.667, 44 90 C 44 88.667, 44.667 88, 46 88 C 47.667 88, 48 88.667, 48 92 L 48 96 44 96 C 40.667 96, 40 96.333, 40 98 C 40 99.667, 40.667 100, 44 100 C 47.333 100, 48 100.333, 48 102 C 48 103.833, 47.333 104, 40 104 C 32.667 104, 32 103.833, 32 102 C 32 100.667, 32.667 100, 34 100 C 35.333 100, 36 99.333, 36 98 C 36 96.667, 35.333 96, 34 96 C 32.667 96, 32 96.667, 32 98 C 32 99.333, 31.333 100, 30 100 C 28.667 100, 28 99.333, 28 98 C 28 96.333, 27.333 96, 24 96 L 20 96 20 92 C 20 88.667, 20.333 88, 22 88 C 23.333 88, 24 88.667, 24 90 C 24 91.667, 24.667 92, 28 92 C 31.333 92, 32 91.667, 32 90 C 32 88.333, 31.333 88, 28 88 L 24 88 24 84 C 24 80.667, 23.667 80, 22 80 C 20.333 80, 20 80.667, 20 84 C 20 87.333, 19.667 88, 18 88 C 16.333 88, 16 88.667, 16 92 C 16 95.333, 16.333 96, 18 96 C 19.333 96, 20 96.667, 20 98 C 20 99.667, 20.667 100, 24 100 L 28 100 28 104 L 28 108 24 108 C 20.667 108, 20 107.667, 20 106 C 20 104.667, 19.333 104, 18 104 C 16.667 104, 16 104.667, 16 106 C 16 107.333, 16.667 108, 18 108 C 19.333 108, 20 108.667, 20 110 C 20 111.333, 19.333 112, 18 112 C 16.667 112, 16 112.667, 16 114 C 16 115.333, 16.667 116, 18 116 C 19.333 116, 20 115.333, 20 114 C 20 112.667, 20.667 112, 22 112 C 23.333 112, 24 112.667, 24 114 C 24 115.333, 24.667 116, 26 116 C 27.667 116, 28 115.333, 28 112 C 28 108.667, 28.333 108, 30 108 C 31.333 108, 32 108.667, 32 110 C 32 111.333, 32.667 112, 34 112 C 35.333 112, 36 112.667, 36 114 C 36 115.778, 36.667 116, 42 116 C 47.333 116, 48 116.222, 48 118 C 48 119.333, 48.667 120, 50 120 C 51.333 120, 52 120.667, 52 122 C 52 123.333, 52.667 124, 54 124 C 55.667 124, 56 123.333, 56 120 L 56 116 60 116 C 63.333 116, 64 115.667, 64 114 C 64 112.667, 64.667 112, 66 112 C 67.333 112, 68 112.667, 68 114 C 68 115.333, 68.667 116, 70 116 C 71.333 116, 72 115.333, 72 114 C 72 112.667, 71.333 112, 70 112 C 68.667 112, 68 111.333, 68 110 C 68 108.333, 68.667 108, 72 108 C 75.333 108, 76 108.333, 76 110 C 76 111.333, 76.667 112, 78 112 C 79.333 112, 80 111.333, 80 110 C 80 108.667, 79.333 108, 78 108 C 76.667 108, 76 107.333, 76 106 C 76 104.667, 76.667 104, 78 104 C 79.333 104, 80 103.333, 80 102 C 80 100.667, 79.333 100, 78 100 C 76.333 100, 76 99.333, 76 96 C 76 92.667, 75.667 92, 74 92 C 72.333 92, 72 91.333, 72 88 L 72 84 76 84 C 79.333 84, 80 83.667, 80 82 C 80 80.667, 80.667 80, 82 80 C 83.333 80, 84 80.667, 84 82 C 84 83.333, 84.667 84, 86 84 C 87.333 84, 88 83.333, 88 82 C 88 80.667, 88.667 80, 90 80 C 91.333 80, 92 80.667, 92 82 C 92 83.333, 92.667 84, 94 84 C 95.667 84, 96 84.667, 96 88 C 96 91.333, 96.333 92, 98 92 C 99.778 92, 100 92.667, 100 98 L 100 104 108 104 C 115.333 104, 116 104.167, 116 106 C 116 107.333, 116.667 108, 118 108 C 119.333 108, 120 108.667, 120 110 C 120 111.667, 119.333 112, 116 112 C 112.667 112, 112 111.667, 112 110 C 112 108.667, 111.333 108, 110 108 C 108.667 108, 108 108.667, 108 110 C 108 111.333, 108.667 112, 110 112 C 111.667 112, 112 112.667, 112 116 L 112 120 108 120 L 104 120 104 114 C 104 108.667, 103.778 108, 102 108 C 100.667 108, 100 108.667, 100 110 C 100 111.333, 99.333 112, 98 112 C 96.667 112, 96 111.333, 96 110 C 96 108.222, 95.333 108, 90 108 L 84 108 84 114 C 84 119.333, 83.778 120, 82 120 C 80.667 120, 80 120.667, 80 122 C 80 123.333, 80.667 124, 82 124 C 83.333 124, 84 124.667, 84 126 C 84 127.333, 83.333 128, 82 128 C 80.667 128, 80 128.667, 80 130 C 80 131.333, 79.333 132, 78 132 C 76.333 132, 76 132.667, 76 136 L 76 140 70 140 C 64.667 140, 64 140.222, 64 142 C 64 143.333, 63.333 144, 62 144 C 60.667 144, 60 144.667, 60 146 C 60 147.333, 60.667 148, 62 148 C 63.333 148, 64 147.333, 64 146 C 64 144.222, 64.667 144, 70 144 C 75.333 144, 76 144.222, 76 146 C 76 147.333, 76.667 148, 78 148 C 79.333 148, 80 147.333, 80 146 C 80 144.667, 80.667 144, 82 144 C 83.333 144, 84 144.667, 84 146 C 84 147.778, 84.667 148, 90 148 C 95.333 148, 96 147.778, 96 146 C 96 144.667, 96.667 144, 98 144 C 99.333 144, 100 144.667, 100 146 C 100 147.333, 100.667 148, 102 148 C 103.333 148, 104 147.333, 104 146 C 104 144.667, 104.667 144, 106 144 C 107.333 144, 108 143.333, 108 142 C 108 140.667, 108.667 140, 110 140 C 111.667 140, 112 140.667, 112 144 C 112 147.333, 112.333 148, 114 148 C 115.333 148, 116 147.333, 116 146 C 116 144.667, 116.667 144, 118 144 C 119.333 144, 120 144.667, 120 146 C 120 147.333, 120.667 148, 122 148 C 123.333 148, 124 147.333, 124 146 C 124 144.667, 123.333 144, 122 144 C 120.333 144, 120 143.333, 120 140 C 120 136.667, 119.667 136, 118 136 C 116.667 136, 116 135.333, 116 134 C 116 132.222, 116.667 132, 122 132 L 128 132 128 140 L 128 148 132 148 L 136 148 136 144 C 136 140.667, 136.333 140, 138 140 C 139.667 140, 140 140.667, 140 144 L 140 148 144 148 C 147.333 148, 148 147.667, 148 146 C 148 144.667, 147.333 144, 146 144 C 144.667 144, 144 143.333, 144 142 C 144 140.667, 144.667 140, 146 140 C 147.778 140, 148 139.333, 148 134 C 148 128.667, 147.778 128, 146 128 C 144.667 128, 144 127.333, 144 126 C 144 124.667, 144.667 124, 146 124 C 147.778 124, 148 123.333, 148 118 C 148 112.667, 147.778 112, 146 112 C 144.667 112, 144 111.333, 144 110 C 144 108.667, 144.667 108, 146 108 C 147.778 108, 148 107.333, 148 102 C 148 96.667, 147.778 96, 146 96 C 144.667 96, 144 96.667, 144 98 C 144 99.333, 143.333 100, 142 100 C 140.667 100, 140 100.667, 140 102 C 140 103.333, 139.333 104, 138 104 C 136.667 104, 136 104.667, 136 106 C 136 107.333, 135.333 108, 134 108 C 132.667 108, 132 107.333, 132 106 C 132 104.333, 131.333 104, 128 104 L 124 104 124 100 C 124 96.667, 124.333 96, 126 96 C 127.333 96, 128 96.667, 128 98 C 128 99.667, 128.667 100, 132 100 C 135.333 100, 136 99.667, 136 98 C 136 96.667, 135.333 96, 134 96 C 132.667 96, 132 95.333, 132 94 C 132 92.333, 131.333 92, 128 92 C 124.667 92, 124 91.667, 124 90 C 124 88.667, 124.667 88, 126 88 C 127.333 88, 128 87.333, 128 86 C 128 84.667, 127.333 84, 126 84 C 124.333 84, 124 83.333, 124 80 C 124 76.667, 123.667 76, 122 76 C 120.667 76, 120 75.333, 120 74 C 120 72.333, 120.667 72, 124 72 L 128 72 128 68 C 128 64.667, 128.333 64, 130 64 C 131.778 64, 132 64.667, 132 70 C 132 75.333, 131.778 76, 130 76 C 128.667 76, 128 76.667, 128 78 C 128 79.333, 128.667 80, 130 80 C 131.333 80, 132 80.667, 132 82 C 132 83.333, 132.667 84, 134 84 C 135.667 84, 136 83.333, 136 80 C 136 76.667, 136.333 76, 138 76 C 139.333 76, 140 76.667, 140 78 C 140 79.333, 140.667 80, 142 80 C 143.333 80, 144 79.333, 144 78 C 144 76.667, 144.667 76, 146 76 C 147.778 76, 148 75.333, 148 70 L 148 64 144 64 C 140.667 64, 140 64.333, 140 66 C 140 67.333, 140.667 68, 142 68 C 143.333 68, 144 68.667, 144 70 C 144 71.667, 143.333 72, 140 72 L 136 72 136 68 C 136 64.667, 135.667 64, 134 64 C 132.667 64, 132 63.333, 132 62 C 132 60.667, 131.333 60, 130 60 C 128.333 60, 128 59.333, 128 56 C 128 52.667, 128.333 52, 130 52 C 131.333 52, 132 51.333, 132 50 C 132 48.667, 131.333 48, 130 48 C 128.667 48, 128 48.667, 128 50 C 128 51.833, 127.333 52, 120 52 L 112 52 112 58 L 112 64 108 64 C 104.667 64, 104 63.667, 104 62 C 104 60.667, 104.667 60, 106 60 C 107.333 60, 108 59.333, 108 58 C 108 56.667, 107.333 56, 106 56 C 104.222 56, 104 55.333, 104 50 C 104 44.667, 104.222 44, 106 44 C 107.333 44, 108 44.667, 108 46 C 108 47.333, 108.667 48, 110 48 C 111.333 48, 112 47.333, 112 46 C 112 44.667, 112.667 44, 114 44 C 115.333 44, 116 43.333, 116 42 C 116 40.667, 115.333 40, 114 40 C 112.667 40, 112 39.333, 112 38 C 112 36.667, 112.667 36, 114 36 C 115.778 36, 116 35.333, 116 30 C 116 24.667, 115.778 24, 114 24 C 112.333 24, 112 23.333, 112 20 L 112 16 108 16 C 104.667 16, 104 16.333, 104 18 C 104 19.333, 103.333 20, 102 20 C 100.667 20, 100 20.667, 100 22 C 100 23.333, 100.667 24, 102 24 C 103.333 24, 104 24.667, 104 26 C 104 27.333, 104.667 28, 106 28 C 107.667 28, 108 28.667, 108 32 C 108 35.333, 107.667 36, 106 36 C 104.667 36, 104 35.333, 104 34 C 104 32.667, 103.333 32, 102 32 C 100.667 32, 100 31.333, 100 30 C 100 28.667, 99.333 28, 98 28 C 96.222 28, 96 27.333, 96 22 L 96 16 86 16 C 76.667 16, 76 16.133, 76 18 C 76 19.333, 75.333 20, 74 20 C 72.667 20, 72 19.333, 72 18 C 72 16.333, 71.333 16, 68 16 C 64.667 16, 64 16.333, 64 18 M 120 30 L 120 44 134 44 L 148 44 148 30 L 148 16 134 16 L 120 16 120 30 M 20 30 L 20 40 30 40 L 40 40 40 30 L 40 20 30 20 L 20 20 20 30 M 68 22 C 68 23.667, 67.333 24, 64 24 C 60.667 24, 60 24.333, 60 26 C 60 27.333, 59.333 28, 58 28 C 56.667 28, 56 28.667, 56 30 C 56 31.333, 55.333 32, 54 32 C 52.667 32, 52 32.667, 52 34 C 52 35.667, 52.667 36, 56 36 L 60 36 60 40 C 60 43.333, 60.333 44, 62 44 C 63.667 44, 64 43.333, 64 40 C 64 36.667, 64.333 36, 66 36 C 67.667 36, 68 36.667, 68 40 C 68 43.333, 68.333 44, 70 44 C 71.333 44, 72 44.667, 72 46 C 72 47.333, 72.667 48, 74 48 C 75.778 48, 76 48.667, 76 54 C 76 59.333, 76.222 60, 78 60 C 79.333 60, 80 60.667, 80 62 C 80 63.333, 79.333 64, 78 64 C 76.667 64, 76 64.667, 76 66 C 76 67.333, 76.667 68, 78 68 C 79.333 68, 80 67.333, 80 66 C 80 64.667, 80.667 64, 82 64 C 83.667 64, 84 64.667, 84 68 C 84 71.333, 84.333 72, 86 72 C 87.333 72, 88 72.667, 88 74 C 88 75.333, 88.667 76, 90 76 C 91.333 76, 92 76.667, 92 78 C 92 79.333, 92.667 80, 94 80 C 95.333 80, 96 79.333, 96 78 C 96 76.667, 95.333 76, 94 76 C 92.667 76, 92 75.333, 92 74 C 92 72.667, 91.333 72, 90 72 C 88.333 72, 88 71.333, 88 68 C 88 64.667, 87.667 64, 86 64 C 84.667 64, 84 63.333, 84 62 C 84 60.667, 84.667 60, 86 60 C 87.333 60, 88 59.333, 88 58 C 88 56.667, 88.667 56, 90 56 C 91.333 56, 92 56.667, 92 58 C 92 59.778, 92.667 60, 98 60 C 103.333 60, 104 59.778, 104 58 C 104 56.667, 103.333 56, 102 56 C 100.667 56, 100 55.333, 100 54 C 100 52.667, 99.333 52, 98 52 C 96.667 52, 96 51.333, 96 50 C 96 48.667, 96.667 48, 98 48 C 99.333 48, 100 47.333, 100 46 C 100 44.667, 100.667 44, 102 44 C 103.333 44, 104 43.333, 104 42 C 104 40.667, 103.333 40, 102 40 C 100.667 40, 100 40.667, 100 42 C 100 43.333, 99.333 44, 98 44 C 96.667 44, 96 43.333, 96 42 C 96 40.667, 95.333 40, 94 40 C 92.667 40, 92 39.333, 92 38 C 92 36.667, 92.667 36, 94 36 C 95.667 36, 96 35.333, 96 32 C 96 28.667, 95.667 28, 94 28 C 92.333 28, 92 28.667, 92 32 C 92 35.333, 91.667 36, 90 36 C 88.667 36, 88 35.333, 88 34 C 88 32.667, 87.333 32, 86 32 C 84.222 32, 84 32.667, 84 38 C 84 43.333, 83.778 44, 82 44 C 80.667 44, 80 43.333, 80 42 C 80 40.667, 79.333 40, 78 40 C 76.667 40, 76 39.333, 76 38 C 76 36.667, 76.667 36, 78 36 C 79.778 36, 80 35.333, 80 30 C 80 24.667, 79.778 24, 78 24 C 76.222 24, 76 24.667, 76 30 C 76 35.333, 75.778 36, 74 36 C 72.667 36, 72 35.333, 72 34 C 72 32.333, 71.333 32, 68 32 C 64.667 32, 64 32.333, 64 34 C 64 35.333, 63.333 36, 62 36 C 60.333 36, 60 35.333, 60 32 L 60 28 64 28 C 67.333 28, 68 27.667, 68 26 C 68 24.667, 68.667 24, 70 24 C 71.333 24, 72 23.333, 72 22 C 72 20.667, 71.333 20, 70 20 C 68.667 20, 68 20.667, 68 22 M 84 22 C 84 23.333, 84.667 24, 86 24 C 87.333 24, 88 23.333, 88 22 C 88 20.667, 87.333 20, 86 20 C 84.667 20, 84 20.667, 84 22 M 104 22 C 104 23.333, 104.667 24, 106 24 C 107.333 24, 108 24.667, 108 26 C 108 27.333, 108.667 28, 110 28 C 111.333 28, 112 27.333, 112 26 C 112 24.667, 111.333 24, 110 24 C 108.667 24, 108 23.333, 108 22 C 108 20.667, 107.333 20, 106 20 C 104.667 20, 104 20.667, 104 22 M 124 30 L 124 40 134 40 L 144 40 144 30 L 144 20 134 20 L 124 20 124 30 M 24 30 L 24 36 30 36 L 36 36 36 30 L 36 24 30 24 L 24 24 24 30 M 128 30 L 128 36 134 36 L 140 36 140 30 L 140 24 134 24 L 128 24 128 30 M 72 42 C 72 43.333, 72.667 44, 74 44 C 75.333 44, 76 44.667, 76 46 C 76 47.333, 76.667 48, 78 48 C 79.333 48, 80 47.333, 80 46 C 80 44.667, 79.333 44, 78 44 C 76.667 44, 76 43.333, 76 42 C 76 40.667, 75.333 40, 74 40 C 72.667 40, 72 40.667, 72 42 M 88 42 C 88 43.333, 87.333 44, 86 44 C 84.222 44, 84 44.667, 84 50 C 84 55.333, 83.778 56, 82 56 C 80.667 56, 80 56.667, 80 58 C 80 59.333, 80.667 60, 82 60 C 83.333 60, 84 59.333, 84 58 C 84 56.667, 84.667 56, 86 56 C 87.667 56, 88 55.333, 88 52 L 88 48 92 48 C 95.333 48, 96 47.667, 96 46 C 96 44.667, 95.333 44, 94 44 C 92.667 44, 92 43.333, 92 42 C 92 40.667, 91.333 40, 90 40 C 88.667 40, 88 40.667, 88 42 M 108 42 C 108 43.333, 108.667 44, 110 44 C 111.333 44, 112 43.333, 112 42 C 112 40.667, 111.333 40, 110 40 C 108.667 40, 108 40.667, 108 42 M 16 50 C 16 51.333, 16.667 52, 18 52 C 19.333 52, 20 52.667, 20 54 C 20 55.333, 20.667 56, 22 56 C 23.333 56, 24 56.667, 24 58 C 24 59.333, 24.667 60, 26 60 C 27.333 60, 28 60.667, 28 62 C 28 63.333, 27.333 64, 26 64 C 24.667 64, 24 64.667, 24 66 C 24 67.333, 24.667 68, 26 68 C 27.667 68, 28 68.667, 28 72 C 28 75.333, 28.333 76, 30 76 C 31.667 76, 32 75.333, 32 72 C 32 68.667, 31.667 68, 30 68 C 28.667 68, 28 67.333, 28 66 C 28 64.667, 28.667 64, 30 64 C 31.333 64, 32 63.333, 32 62 C 32 60.667, 31.333 60, 30 60 C 28.667 60, 28 59.333, 28 58 C 28 56.222, 28.667 56, 34 56 C 39.333 56, 40 56.222, 40 58 C 40 59.333, 39.333 60, 38 60 C 36.667 60, 36 60.667, 36 62 C 36 63.333, 36.667 64, 38 64 C 39.333 64, 40 64.667, 40 66 C 40 67.333, 40.667 68, 42 68 C 43.333 68, 44 67.333, 44 66 C 44 64.667, 44.667 64, 46 64 C 47.333 64, 48 63.333, 48 62 C 48 60.667, 48.667 60, 50 60 C 51.333 60, 52 59.333, 52 58 C 52 56.667, 52.667 56, 54 56 C 55.333 56, 56 55.333, 56 54 C 56 52.667, 55.333 52, 54 52 C 52.667 52, 52 52.667, 52 54 C 52 55.333, 51.333 56, 50 56 C 48.667 56, 48 55.333, 48 54 C 48 52.667, 47.333 52, 46 52 C 44.667 52, 44 51.333, 44 50 C 44 48.667, 43.333 48, 42 48 C 40.667 48, 40 48.667, 40 50 C 40 51.333, 39.333 52, 38 52 C 36.667 52, 36 51.333, 36 50 C 36 48.667, 35.333 48, 34 48 C 32.667 48, 32 48.667, 32 50 C 32 51.333, 31.333 52, 30 52 C 28.667 52, 28 51.333, 28 50 C 28 48.667, 27.333 48, 26 48 C 24.667 48, 24 48.667, 24 50 C 24 51.333, 23.333 52, 22 52 C 20.667 52, 20 51.333, 20 50 C 20 48.667, 19.333 48, 18 48 C 16.667 48, 16 48.667, 16 50 M 140 50 C 140 51.333, 140.667 52, 142 52 C 143.667 52, 144 52.667, 144 56 C 144 59.333, 144.333 60, 146 60 C 147.667 60, 148 59.333, 148 56 C 148 52.667, 147.667 52, 146 52 C 144.667 52, 144 51.333, 144 50 C 144 48.667, 143.333 48, 142 48 C 140.667 48, 140 48.667, 140 50 M 24 54 C 24 55.333, 24.667 56, 26 56 C 27.333 56, 28 55.333, 28 54 C 28 52.667, 27.333 52, 26 52 C 24.667 52, 24 52.667, 24 54 M 40 54 C 40 55.333, 40.667 56, 42 56 C 43.333 56, 44 56.667, 44 58 C 44 59.333, 43.333 60, 42 60 C 40.667 60, 40 60.667, 40 62 C 40 63.333, 40.667 64, 42 64 C 43.333 64, 44 63.333, 44 62 C 44 60.667, 44.667 60, 46 60 C 47.333 60, 48 59.333, 48 58 C 48 56.667, 47.333 56, 46 56 C 44.667 56, 44 55.333, 44 54 C 44 52.667, 43.333 52, 42 52 C 40.667 52, 40 52.667, 40 54 M 116 58 C 116 59.333, 116.667 60, 118 60 C 119.333 60, 120 60.667, 120 62 C 120 63.667, 119.333 64, 116 64 C 112.667 64, 112 64.333, 112 66 C 112 67.333, 111.333 68, 110 68 C 108.222 68, 108 68.667, 108 74 C 108 79.333, 107.778 80, 106 80 C 104.667 80, 104 80.667, 104 82 C 104 83.333, 104.667 84, 106 84 C 107.667 84, 108 84.667, 108 88 C 108 91.333, 107.667 92, 106 92 C 104.667 92, 104 91.333, 104 90 C 104 88.667, 103.333 88, 102 88 C 100.667 88, 100 88.667, 100 90 C 100 91.333, 100.667 92, 102 92 C 103.333 92, 104 92.667, 104 94 C 104 95.333, 104.667 96, 106 96 C 107.333 96, 108 96.667, 108 98 C 108 99.667, 108.667 100, 112 100 C 115.333 100, 116 100.333, 116 102 C 116 103.333, 116.667 104, 118 104 C 119.667 104, 120 103.333, 120 100 C 120 96.667, 120.333 96, 122 96 C 123.333 96, 124 95.333, 124 94 C 124 92.667, 123.333 92, 122 92 C 120.333 92, 120 91.333, 120 88 L 120 84 114 84 C 108.667 84, 108 83.778, 108 82 C 108 80.667, 108.667 80, 110 80 C 111.333 80, 112 79.333, 112 78 C 112 76.667, 112.667 76, 114 76 C 115.333 76, 116 76.667, 116 78 C 116 79.333, 116.667 80, 118 80 C 119.333 80, 120 79.333, 120 78 C 120 76.667, 119.333 76, 118 76 C 116.667 76, 116 75.333, 116 74 C 116 72.667, 116.667 72, 118 72 C 119.667 72, 120 71.333, 120 68 L 120 64 124 64 C 127.333 64, 128 63.667, 128 62 C 128 60.333, 127.333 60, 124 60 C 120.667 60, 120 59.667, 120 58 C 120 56.667, 119.333 56, 118 56 C 116.667 56, 116 56.667, 116 58 M 136 58 C 136 59.333, 136.667 60, 138 60 C 139.333 60, 140 59.333, 140 58 C 140 56.667, 139.333 56, 138 56 C 136.667 56, 136 56.667, 136 58 M 16 62 C 16 63.333, 16.667 64, 18 64 C 19.333 64, 20 63.333, 20 62 C 20 60.667, 19.333 60, 18 60 C 16.667 60, 16 60.667, 16 62 M 68 66 C 68 67.333, 68.667 68, 70 68 C 71.333 68, 72 67.333, 72 66 C 72 64.667, 71.333 64, 70 64 C 68.667 64, 68 64.667, 68 66 M 92 66 C 92 67.333, 92.667 68, 94 68 C 95.333 68, 96 67.333, 96 66 C 96 64.667, 95.333 64, 94 64 C 92.667 64, 92 64.667, 92 66 M 16 74 C 16 75.667, 16.667 76, 20 76 C 23.333 76, 24 75.667, 24 74 C 24 72.333, 23.333 72, 20 72 C 16.667 72, 16 72.333, 16 74 M 100 74 C 100 75.333, 100.667 76, 102 76 C 103.333 76, 104 75.333, 104 74 C 104 72.667, 103.333 72, 102 72 C 100.667 72, 100 72.667, 100 74 M 40 78 C 40 79.333, 40.667 80, 42 80 C 43.333 80, 44 80.667, 44 82 C 44 83.333, 44.667 84, 46 84 C 47.667 84, 48 83.333, 48 80 L 48 76 44 76 C 40.667 76, 40 76.333, 40 78 M 76 78 C 76 79.333, 76.667 80, 78 80 C 79.333 80, 80 79.333, 80 78 C 80 76.667, 79.333 76, 78 76 C 76.667 76, 76 76.667, 76 78 M 64 86 C 64 87.333, 64.667 88, 66 88 C 67.333 88, 68 87.333, 68 86 C 68 84.667, 67.333 84, 66 84 C 64.667 84, 64 84.667, 64 86 M 144 88 C 144 91.333, 144.333 92, 146 92 C 147.667 92, 148 91.333, 148 88 C 148 84.667, 147.667 84, 146 84 C 144.333 84, 144 84.667, 144 88 M 80 90 C 80 91.667, 80.667 92, 84 92 C 87.333 92, 88 91.667, 88 90 C 88 88.333, 87.333 88, 84 88 C 80.667 88, 80 88.333, 80 90 M 136 90 C 136 91.333, 136.667 92, 138 92 C 139.333 92, 140 91.333, 140 90 C 140 88.667, 139.333 88, 138 88 C 136.667 88, 136 88.667, 136 90 M 60 98 C 60 103.333, 59.778 104, 58 104 C 56.667 104, 56 104.667, 56 106 C 56 107.867, 55.333 108, 46 108 C 36.667 108, 36 108.133, 36 110 C 36 111.778, 36.667 112, 42 112 C 47.333 112, 48 112.222, 48 114 C 48 115.333, 48.667 116, 50 116 C 51.333 116, 52 115.333, 52 114 C 52 112.667, 52.667 112, 54 112 C 55.333 112, 56 111.333, 56 110 C 56 108.667, 56.667 108, 58 108 C 59.333 108, 60 108.667, 60 110 C 60 111.333, 60.667 112, 62 112 C 63.333 112, 64 111.333, 64 110 C 64 108.667, 64.667 108, 66 108 C 67.333 108, 68 107.333, 68 106 C 68 104.333, 68.667 104, 72 104 C 75.333 104, 76 103.667, 76 102 C 76 100.333, 75.333 100, 72 100 C 68.667 100, 68 100.333, 68 102 C 68 103.333, 67.333 104, 66 104 C 64.222 104, 64 103.333, 64 98 C 64 92.667, 63.778 92, 62 92 C 60.222 92, 60 92.667, 60 98 M 68 94 C 68 95.333, 68.667 96, 70 96 C 71.333 96, 72 95.333, 72 94 C 72 92.667, 71.333 92, 70 92 C 68.667 92, 68 92.667, 68 94 M 112 94 C 112 95.667, 112.667 96, 116 96 C 119.333 96, 120 95.667, 120 94 C 120 92.333, 119.333 92, 116 92 C 112.667 92, 112 92.333, 112 94 M 92 102 C 92 103.333, 92.667 104, 94 104 C 95.333 104, 96 103.333, 96 102 C 96 100.667, 95.333 100, 94 100 C 92.667 100, 92 100.667, 92 102 M 136 114 C 136 119.333, 135.778 120, 134 120 C 132.333 120, 132 120.667, 132 124 C 132 127.333, 132.333 128, 134 128 C 135.667 128, 136 128.667, 136 132 C 136 135.333, 135.667 136, 134 136 C 132.667 136, 132 136.667, 132 138 C 132 139.333, 132.667 140, 134 140 C 135.333 140, 136 139.333, 136 138 C 136 136.667, 136.667 136, 138 136 C 139.333 136, 140 136.667, 140 138 C 140 139.333, 140.667 140, 142 140 C 143.778 140, 144 139.333, 144 134 C 144 128.667, 143.778 128, 142 128 C 140.667 128, 140 127.333, 140 126 C 140 124.667, 140.667 124, 142 124 C 143.778 124, 144 123.333, 144 118 C 144 112.667, 143.778 112, 142 112 C 140.667 112, 140 111.333, 140 110 C 140 108.667, 139.333 108, 138 108 C 136.222 108, 136 108.667, 136 114 M 92 114 C 92 115.333, 91.333 116, 90 116 C 88.667 116, 88 116.667, 88 118 C 88 119.333, 87.333 120, 86 120 C 84.667 120, 84 120.667, 84 122 C 84 123.333, 84.667 124, 86 124 C 87.333 124, 88 123.333, 88 122 C 88 120.667, 88.667 120, 90 120 C 91.333 120, 92 120.667, 92 122 C 92 123.778, 92.667 124, 98 124 C 103.333 124, 104 123.778, 104 122 C 104 120.333, 103.333 120, 100 120 L 96 120 96 116 C 96 112.667, 95.667 112, 94 112 C 92.667 112, 92 112.667, 92 114 M 116 122 L 116 128 122 128 L 128 128 128 122 L 128 116 122 116 L 116 116 116 122 M 16 134 L 16 148 30 148 L 44 148 44 134 L 44 120 30 120 L 16 120 16 134 M 68 122 C 68 123.333, 67.333 124, 66 124 C 64.667 124, 64 124.667, 64 126 C 64 127.833, 63.333 128, 56 128 C 48.667 128, 48 128.167, 48 130 C 48 131.333, 48.667 132, 50 132 C 51.333 132, 52 132.667, 52 134 C 52 135.333, 51.333 136, 50 136 C 48.667 136, 48 136.667, 48 138 C 48 139.333, 48.667 140, 50 140 C 51.333 140, 52 140.667, 52 142 C 52 143.333, 51.333 144, 50 144 C 48.667 144, 48 144.667, 48 146 C 48 147.333, 48.667 148, 50 148 C 51.333 148, 52 147.333, 52 146 C 52 144.667, 52.667 144, 54 144 C 55.667 144, 56 143.333, 56 140 C 56 136.667, 56.333 136, 58 136 C 59.333 136, 60 135.333, 60 134 C 60 132.222, 60.667 132, 66 132 C 71.333 132, 72 131.778, 72 130 C 72 128.667, 71.333 128, 70 128 C 68.667 128, 68 127.333, 68 126 C 68 124.333, 68.667 124, 72 124 C 75.333 124, 76 123.667, 76 122 C 76 120.333, 75.333 120, 72 120 C 68.667 120, 68 120.333, 68 122 M 120 122 C 120 123.333, 120.667 124, 122 124 C 123.333 124, 124 123.333, 124 122 C 124 120.667, 123.333 120, 122 120 C 120.667 120, 120 120.667, 120 122 M 136 122 C 136 123.333, 136.667 124, 138 124 C 139.333 124, 140 123.333, 140 122 C 140 120.667, 139.333 120, 138 120 C 136.667 120, 136 120.667, 136 122 M 20 134 L 20 144 30 144 L 40 144 40 134 L 40 124 30 124 L 20 124 20 134 M 108 128 C 108 131.333, 107.667 132, 106 132 C 104.667 132, 104 131.333, 104 130 C 104 128.667, 103.333 128, 102 128 C 100.667 128, 100 128.667, 100 130 C 100 131.333, 100.667 132, 102 132 C 103.333 132, 104 132.667, 104 134 C 104 135.667, 104.667 136, 108 136 L 112 136 112 130 C 112 124.667, 111.778 124, 110 124 C 108.333 124, 108 124.667, 108 128 M 24 134 L 24 140 30 140 L 36 140 36 134 L 36 128 30 128 L 24 128 24 134 M 84 132 C 84 135.333, 84.333 136, 86 136 C 87.333 136, 88 136.667, 88 138 C 88 139.333, 88.667 140, 90 140 C 91.333 140, 92 140.667, 92 142 C 92 143.333, 92.667 144, 94 144 C 95.333 144, 96 143.333, 96 142 C 96 140.667, 95.333 140, 94 140 C 92.667 140, 92 139.333, 92 138 C 92 136.667, 91.333 136, 90 136 C 88.333 136, 88 135.333, 88 132 C 88 128.667, 87.667 128, 86 128 C 84.333 128, 84 128.667, 84 132 M 92 130 C 92 131.333, 92.667 132, 94 132 C 95.333 132, 96 131.333, 96 130 C 96 128.667, 95.333 128, 94 128 C 92.667 128, 92 128.667, 92 130 M 76 142 C 76 143.333, 76.667 144, 78 144 C 79.333 144, 80 143.333, 80 142 C 80 140.667, 79.333 140, 78 140 C 76.667 140, 76 140.667, 76 142" stroke="none" fill="black" fill-rule="evenodd"/>
</svg>